<svg width="26" height="32" viewBox="0 0 26 32" fill="none" xmlns="http://www.w3.org/2000/svg">
<path d="M25.9458 13.5642C25.8838 13.3986 25.7728 13.2558 25.6275 13.155C25.4823 13.0542 25.3097 13.0001 25.1328 13H14.6679L20.7042 1.2636C20.7726 1.13145 20.8057 0.983912 20.8005 0.835218C20.7952 0.686524 20.7517 0.541693 20.6742 0.414698C20.5967 0.287702 20.4877 0.182827 20.3579 0.110189C20.228 0.0375511 20.0817 -0.000397693 19.9329 3.14271e-06C19.7251 8.9371e-05 19.5242 0.0748292 19.3669 0.210603L12.9996 5.7096L0.300372 16.6773C0.166539 16.7928 0.0712372 16.9465 0.0272516 17.1177C-0.016734 17.2889 -0.00729879 17.4695 0.0542916 17.6353C0.115882 17.801 0.226681 17.9439 0.371824 18.0448C0.516966 18.1458 0.689509 18.1999 0.866303 18.2H11.3313L5.29495 29.9364C5.22659 30.0685 5.19343 30.2161 5.19869 30.3648C5.20394 30.5135 5.24743 30.6583 5.32495 30.7853C5.40247 30.9123 5.51141 31.0172 5.64126 31.0898C5.77111 31.1625 5.91749 31.2004 6.06628 31.2C6.27407 31.1999 6.47491 31.1252 6.63221 30.9894L12.9996 25.4904L25.6988 14.5227C25.8329 14.4073 25.9284 14.2536 25.9726 14.0822C26.0167 13.9108 26.0074 13.7301 25.9458 13.5642Z" fill="#A162F7"/>
</svg>
