<svg width="20" height="20" viewBox="0 0 20 20" fill="none" xmlns="http://www.w3.org/2000/svg">
<path fill-rule="evenodd" clip-rule="evenodd" d="M14.5833 12.5C14.2065 12.5 13.6741 12.5521 13.1198 12.628C12.8609 12.6634 12.6634 12.8609 12.628 13.1198C12.5521 13.6741 12.5 14.2065 12.5 14.5833C12.5 14.9601 12.5521 15.4925 12.628 16.0468C12.6634 16.3057 12.8609 16.5032 13.1198 16.5387C13.6741 16.6146 14.2065 16.6666 14.5833 16.6666C14.9601 16.6666 15.4925 16.6146 16.0468 16.5387C16.3057 16.5032 16.5032 16.3057 16.5387 16.0468C16.6146 15.4925 16.6666 14.9601 16.6666 14.5833C16.6666 14.2065 16.6146 13.6741 16.5387 13.1198C16.5032 12.8609 16.3057 12.6634 16.0468 12.628C15.4925 12.5521 14.9601 12.5 14.5833 12.5ZM12.8937 10.9767C11.8938 11.1137 11.1137 11.8938 10.9767 12.8937C10.8982 13.4672 10.8333 14.0901 10.8333 14.5833C10.8333 15.0765 10.8982 15.6994 10.9767 16.273C11.1137 17.2729 11.8938 18.053 12.8937 18.1899C13.4672 18.2684 14.0901 18.3333 14.5833 18.3333C15.0765 18.3333 15.6994 18.2684 16.273 18.1899C17.2729 18.053 18.053 17.2729 18.1899 16.273C18.2684 15.6994 18.3333 15.0765 18.3333 14.5833C18.3333 14.0901 18.2684 13.4672 18.1899 12.8937C18.053 11.8938 17.2729 11.1137 16.273 10.9767C15.6994 10.8982 15.0765 10.8333 14.5833 10.8333C14.0901 10.8333 13.4672 10.8982 12.8937 10.9767Z" fill="#5F6165"/>
<path fill-rule="evenodd" clip-rule="evenodd" d="M5.41669 12.5C5.03987 12.5 4.50746 12.5521 3.9532 12.628C3.69426 12.6634 3.49681 12.8609 3.46135 13.1198C3.38544 13.6741 3.33335 14.2065 3.33335 14.5833C3.33335 14.9601 3.38544 15.4925 3.46135 16.0468C3.49681 16.3057 3.69426 16.5032 3.9532 16.5387C4.50746 16.6146 5.03987 16.6666 5.41669 16.6666C5.7935 16.6666 6.32592 16.6146 6.88018 16.5387C7.13912 16.5032 7.33656 16.3057 7.37203 16.0468C7.44793 15.4925 7.50002 14.9601 7.50002 14.5833C7.50002 14.2065 7.44793 13.6741 7.37203 13.1198C7.33656 12.8609 7.13912 12.6634 6.88018 12.628C6.32592 12.5521 5.7935 12.5 5.41669 12.5ZM3.72705 10.9767C2.72713 11.1137 1.94704 11.8938 1.8101 12.8937C1.73155 13.4672 1.66669 14.0901 1.66669 14.5833C1.66669 15.0765 1.73155 15.6994 1.8101 16.273C1.94704 17.2729 2.72713 18.053 3.72705 18.1899C4.30056 18.2684 4.92349 18.3333 5.41669 18.3333C5.90989 18.3333 6.53282 18.2684 7.10632 18.1899C8.10624 18.053 8.88633 17.2729 9.02328 16.273C9.10182 15.6994 9.16669 15.0765 9.16669 14.5833C9.16669 14.0901 9.10182 13.4672 9.02328 12.8937C8.88633 11.8938 8.10624 11.1137 7.10632 10.9767C6.53282 10.8982 5.90989 10.8333 5.41669 10.8333C4.92349 10.8333 4.30056 10.8982 3.72705 10.9767Z" fill="#5F6165"/>
<path fill-rule="evenodd" clip-rule="evenodd" d="M14.5833 3.33335C14.2065 3.33335 13.6741 3.38544 13.1198 3.46135C12.8609 3.49681 12.6634 3.69426 12.628 3.9532C12.5521 4.50746 12.5 5.03987 12.5 5.41669C12.5 5.7935 12.5521 6.32592 12.628 6.88018C12.6634 7.13912 12.8609 7.33656 13.1198 7.37203C13.6741 7.44793 14.2065 7.50002 14.5833 7.50002C14.9601 7.50002 15.4925 7.44793 16.0468 7.37203C16.3057 7.33656 16.5032 7.13912 16.5387 6.88018C16.6146 6.32592 16.6666 5.7935 16.6666 5.41669C16.6666 5.03987 16.6146 4.50746 16.5387 3.9532C16.5032 3.69426 16.3057 3.49681 16.0468 3.46135C15.4925 3.38544 14.9601 3.33335 14.5833 3.33335ZM12.8937 1.8101C11.8938 1.94704 11.1137 2.72713 10.9767 3.72705C10.8982 4.30056 10.8333 4.92349 10.8333 5.41669C10.8333 5.90989 10.8982 6.53282 10.9767 7.10632C11.1137 8.10624 11.8938 8.88633 12.8937 9.02328C13.4672 9.10182 14.0901 9.16669 14.5833 9.16669C15.0765 9.16669 15.6994 9.10182 16.273 9.02328C17.2729 8.88633 18.053 8.10624 18.1899 7.10632C18.2684 6.53282 18.3333 5.90989 18.3333 5.41669C18.3333 4.92349 18.2684 4.30056 18.1899 3.72705C18.053 2.72713 17.2729 1.94704 16.273 1.8101C15.6994 1.73155 15.0765 1.66669 14.5833 1.66669C14.0901 1.66669 13.4672 1.73155 12.8937 1.8101Z" fill="#5F6165"/>
<path fill-rule="evenodd" clip-rule="evenodd" d="M5.41669 3.33335C5.03987 3.33335 4.50746 3.38544 3.9532 3.46135C3.69426 3.49681 3.49681 3.69426 3.46135 3.9532C3.38544 4.50746 3.33335 5.03987 3.33335 5.41669C3.33335 5.7935 3.38544 6.32592 3.46135 6.88018C3.49681 7.13912 3.69426 7.33656 3.9532 7.37203C4.50746 7.44793 5.03987 7.50002 5.41669 7.50002C5.7935 7.50002 6.32592 7.44793 6.88018 7.37203C7.13912 7.33656 7.33656 7.13912 7.37203 6.88018C7.44793 6.32592 7.50002 5.7935 7.50002 5.41669C7.50002 5.03987 7.44793 4.50746 7.37203 3.9532C7.33656 3.69426 7.13912 3.49681 6.88018 3.46135C6.32592 3.38544 5.7935 3.33335 5.41669 3.33335ZM3.72705 1.8101C2.72713 1.94704 1.94704 2.72713 1.8101 3.72705C1.73155 4.30056 1.66669 4.92349 1.66669 5.41669C1.66669 5.90989 1.73155 6.53282 1.8101 7.10632C1.94704 8.10624 2.72713 8.88633 3.72705 9.02328C4.30056 9.10182 4.92349 9.16669 5.41669 9.16669C5.90989 9.16669 6.53282 9.10182 7.10632 9.02328C8.10624 8.88633 8.88633 8.10624 9.02328 7.10632C9.10182 6.53282 9.16669 5.90989 9.16669 5.41669C9.16669 4.92349 9.10182 4.30056 9.02328 3.72705C8.88633 2.72713 8.10624 1.94704 7.10632 1.8101C6.53282 1.73155 5.90989 1.66669 5.41669 1.66669C4.92349 1.66669 4.30056 1.73155 3.72705 1.8101Z" fill="#5F6165"/>
</svg>
