<svg width="30" height="30" viewBox="0 0 30 30" fill="none" xmlns="http://www.w3.org/2000/svg">
<g clip-path="url(#clip0_68_2211)">
<path d="M14.6306 0H14.6328V0.000488281C16.0737 0.000732422 17.4663 0.209229 18.7808 0.597656C18.991 0.659668 19.2031 0.728027 19.4167 0.801758C20.4978 1.17578 21.5198 1.67212 22.4663 2.27368C22.533 2.31592 22.5527 2.4043 22.5107 2.47095C22.5063 2.47754 22.5012 2.48413 22.4961 2.48999L21.4492 3.83228C21.4028 3.89185 21.3184 3.90454 21.2568 3.86279L21.2544 3.86133C20.9883 3.69702 20.7134 3.5415 20.4312 3.39526C20.1467 3.24829 19.8577 3.11206 19.5645 2.98779L19.564 2.98755C18.0488 2.34473 16.3816 1.98926 14.6304 1.98926H14.6289V1.98877C12.8843 1.98877 11.2212 2.34302 9.70898 2.98267C9.46191 3.08716 9.21948 3.19897 8.98267 3.31738C7.76025 3.92871 6.6499 4.73364 5.69165 5.69189L5.69067 5.69287L5.68408 5.69898C5.36621 6.01733 5.06519 6.35254 4.78271 6.70313C4.49854 7.05591 4.23218 7.42481 3.98633 7.80762C2.72241 9.77539 1.98901 12.1172 1.98901 14.6304V14.6318H1.98853C1.98853 16.3765 2.34277 18.0396 2.98242 19.5518C3.08691 19.7991 3.19873 20.0413 3.31714 20.2781C3.92847 21.5002 4.7334 22.6108 5.69189 23.5691L5.69287 23.5701L5.69824 23.5757C6.0166 23.8938 6.35229 24.1951 6.70312 24.4778C7.05591 24.7622 7.4248 25.0283 7.80786 25.2742C9.77564 26.5381 12.1177 27.2715 14.6306 27.2715H14.6321V27.2722C16.3772 27.272 18.0398 26.918 19.552 26.2783C19.7993 26.1738 20.0415 26.062 20.2783 25.9436C21.5007 25.3323 22.6113 24.5273 23.5693 23.5691L23.5706 23.5679L23.5779 23.5608C23.8953 23.2427 24.196 22.908 24.4783 22.5579C24.7627 22.2051 25.0288 21.8359 25.2747 21.4531C26.5388 19.4854 27.272 17.1436 27.272 14.6306V14.6282H27.2727C27.2725 13.5737 27.1428 12.5479 26.8984 11.5674C26.8579 11.4041 26.8152 11.2456 26.7708 11.0923C26.5359 10.2849 26.2222 9.5105 25.8396 8.77832C25.8064 8.71509 25.8254 8.63843 25.8816 8.59741L27.2344 7.52783C27.2959 7.479 27.3855 7.4895 27.4341 7.55127C27.4385 7.55664 27.4421 7.5625 27.4453 7.56836H27.4458L27.4468 7.57031L27.4482 7.57324C27.6096 7.86572 27.7622 8.16528 27.9041 8.4707C28.0461 8.77637 28.1777 9.08716 28.2983 9.40186C28.9202 11.0259 29.261 12.7891 29.261 14.6309V14.6323H29.2605C29.2603 16.6516 28.8506 18.5762 28.1104 20.3259C27.9905 20.6099 27.8611 20.8904 27.7227 21.1665C27.0139 22.5837 26.0828 23.8689 24.9758 24.9761L24.9749 24.9771L24.9695 24.9819C24.6003 25.3508 24.2114 25.6997 23.8047 26.0276C23.3962 26.3569 22.9695 26.6646 22.5269 26.949C20.249 28.4119 17.5383 29.2612 14.6304 29.2612H14.6289V29.2607C12.6096 29.2605 10.6851 28.8508 8.9353 28.1106C8.65137 27.9907 8.37085 27.8611 8.09448 27.7227C6.67749 27.0142 5.39209 26.0828 4.28491 24.9761L4.28394 24.9749L4.2771 24.9678C3.90894 24.5991 3.56055 24.2109 3.2334 23.8049C2.9043 23.3965 2.59644 22.9697 2.31226 22.5271C0.849365 20.2488 0 17.5383 0 14.6306V14.6289H0.000488281C0.000732422 12.6096 0.4104 10.6853 1.15039 8.9353C1.27051 8.65137 1.3999 8.37109 1.53833 8.09448C2.24683 6.67749 3.17822 5.39233 4.28491 4.28516L4.28589 4.28418L4.29224 4.27856C4.66089 3.91016 5.0498 3.56128 5.45581 3.23389C5.8645 2.90479 6.29102 2.59692 6.73389 2.31274C9.01245 0.849121 11.7229 0 14.6306 0ZM22.7214 3.97925L26.8157 0.0671387L27.0884 2.70557L30 3.06958L25.6157 7.31787L23.4824 7.50098L14.9697 15.4185L14.1853 14.7429L22.2485 6.32007L22.7214 3.97925ZM14.6306 9.99951H14.6343V10C14.9097 10.0002 15.1777 10.0239 15.4358 10.0693C15.4658 10.0747 15.5083 10.0828 15.562 10.0938H15.5627C15.7776 10.1377 15.988 10.197 16.1924 10.2703C16.2666 10.2966 16.3052 10.3782 16.2786 10.4524C16.2734 10.467 16.2656 10.4802 16.2566 10.4919L16.2568 10.4922L15.114 11.958C15.082 11.9993 15.0312 12.0176 14.9827 12.0112V12.0117L14.9761 12.0107L14.9253 12.0049L14.9209 12.0042L14.877 11.9995L14.8733 11.999C14.7971 11.9924 14.7163 11.9888 14.6306 11.9888H14.6292V11.988C14.2651 11.9883 13.9175 12.0625 13.6016 12.1963C13.5493 12.2185 13.4985 12.2419 13.45 12.2661C13.1956 12.3933 12.9636 12.5615 12.7627 12.7625L12.7617 12.7634L12.7551 12.7693C12.6907 12.8342 12.6296 12.9028 12.572 12.9744C12.5127 13.0479 12.457 13.1252 12.4055 13.2053C12.1418 13.616 11.989 14.1055 11.989 14.6304V14.6318H11.9883C11.9885 14.9963 12.0627 15.3438 12.1965 15.6594C12.2188 15.7119 12.2422 15.7627 12.2664 15.811C12.3936 16.0657 12.562 16.2974 12.7627 16.498L12.7637 16.4993L12.7695 16.5054C12.8345 16.5698 12.9031 16.6313 12.9746 16.6887C13.0481 16.748 13.1255 16.804 13.2056 16.8555C13.6165 17.1189 14.106 17.272 14.6306 17.272H14.6321V17.2725C14.9966 17.2725 15.3442 17.1982 15.6597 17.0645C15.7122 17.0422 15.7627 17.0188 15.8113 16.9946C16.0659 16.8672 16.2976 16.699 16.4983 16.498L16.4995 16.4968L16.5044 16.4922C16.54 16.4563 16.5747 16.4199 16.6067 16.384C16.6387 16.3481 16.6721 16.3079 16.7063 16.2644C16.8718 16.0544 17.0063 15.8191 17.1021 15.5659C17.113 15.5364 17.1328 15.5125 17.1575 15.4966L19.0042 14.0361C19.0659 13.9873 19.1553 13.9978 19.2041 14.0596C19.2212 14.0813 19.2307 14.1064 19.2336 14.1321H19.2344L19.2356 14.1431L19.2361 14.1506L19.2419 14.2117V14.2134H19.2424L19.2478 14.2798V14.281C19.2563 14.3982 19.2612 14.5146 19.2612 14.6304V14.6318H19.2605C19.2603 15.2708 19.1306 15.8796 18.8965 16.4333C18.8589 16.5225 18.8176 16.6113 18.7737 16.6995C18.5488 17.1484 18.2544 17.5554 17.9045 17.905L17.9036 17.906L17.8958 17.9126C17.7805 18.0273 17.6594 18.1365 17.5332 18.2383C17.4038 18.3423 17.2686 18.4399 17.1289 18.5295C16.4077 18.9924 15.5503 19.2612 14.6304 19.2612H14.6289V19.2605C13.99 19.2603 13.3811 19.1306 12.8276 18.8965C12.7385 18.8589 12.6494 18.8176 12.5615 18.7737C12.1125 18.5488 11.7056 18.2544 11.356 17.9048L11.355 17.9038L11.3469 17.895C11.2327 17.78 11.1243 17.6592 11.0227 17.5332C10.9185 17.4038 10.821 17.2688 10.7312 17.1289C10.2683 16.408 9.99951 15.5503 9.99951 14.6306V14.6289H10C10.0002 13.9902 10.1301 13.3813 10.364 12.8279C10.4019 12.7388 10.4429 12.6499 10.4868 12.5618C10.7112 12.1135 11.0056 11.7068 11.3557 11.3567L11.356 11.3564L11.3557 11.3562L11.3567 11.3552C11.4727 11.2395 11.5964 11.1284 11.7273 11.023C11.8567 10.9187 11.9917 10.8213 12.1316 10.7314C12.8533 10.2683 13.7112 9.99951 14.6306 9.99951ZM14.873 11.999C14.7981 11.9897 14.7434 11.9233 14.748 11.8481L14.873 11.999ZM14.6306 4.9585H14.6331V4.95898C15.4983 4.95923 16.3364 5.073 17.1326 5.28564C17.2622 5.32031 17.3911 5.35767 17.5188 5.39771C18.1743 5.6023 18.8008 5.87573 19.3892 6.20898C19.4575 6.2478 19.4817 6.33496 19.4429 6.40332C19.4392 6.40918 19.4355 6.41528 19.4312 6.42065L19.4304 6.42139L18.3699 7.78174C18.3254 7.83838 18.2466 7.85254 18.186 7.81763L18.1826 7.81592C18.0391 7.74097 17.8894 7.66846 17.7339 7.6001C17.5774 7.53101 17.4202 7.46753 17.2625 7.40991C16.4424 7.1106 15.5557 6.94727 14.6304 6.94727H14.6289V6.94678C13.5686 6.94678 12.5581 7.16235 11.6389 7.55103C11.4939 7.61255 11.3464 7.68066 11.1975 7.75488L11.1863 7.76001C10.4482 8.13086 9.77734 8.61792 9.19751 9.19751L9.19653 9.19849L9.19092 9.2041C8.99878 9.39673 8.81641 9.60034 8.64526 9.81274C8.47266 10.0271 8.31079 10.2515 8.16138 10.4841C7.39355 11.6799 6.948 13.1033 6.948 14.6304V14.6318H6.94751C6.94751 15.6921 7.16309 16.7029 7.55176 17.6218C7.61523 17.7722 7.68335 17.9197 7.75513 18.0632C8.12646 18.8057 8.61572 19.4805 9.19824 20.063L9.19922 20.064C9.39502 20.26 9.60034 20.4446 9.81323 20.616C10.0276 20.7886 10.252 20.9504 10.4846 21.0999C11.6804 21.8679 13.104 22.3132 14.6309 22.3132H14.6323V22.3137C15.6926 22.3137 16.7034 22.0984 17.6226 21.7097C17.7729 21.646 17.9204 21.5781 18.064 21.5061C18.8064 21.1348 19.4812 20.6458 20.0637 20.063L20.0647 20.062C20.2607 19.866 20.4453 19.6609 20.6167 19.448C20.7893 19.2334 20.9512 19.0093 21.1006 18.7764C21.8689 17.5803 22.3145 16.157 22.3145 14.6304H22.314V14.6267H22.3145C22.3145 14.1528 22.271 13.688 22.1885 13.2373C22.176 13.1699 22.1614 13.0962 22.1445 13.0178C22.0647 12.6431 21.9575 12.2795 21.8264 11.9299C21.803 11.8672 21.8264 11.7983 21.8794 11.7622L23.262 10.6689C23.3237 10.6201 23.4131 10.6306 23.4617 10.6924C23.469 10.7019 23.4749 10.7114 23.4795 10.7217L23.4807 10.7241L23.4817 10.7261L23.4819 10.7258C23.554 10.8892 23.6233 11.0591 23.6895 11.2351C23.7546 11.4089 23.8147 11.5835 23.8687 11.7583C24.1506 12.6663 24.3027 13.6309 24.3027 14.6301V14.6316H24.302C24.302 15.9663 24.0313 17.2385 23.542 18.395C23.4629 18.5823 23.377 18.7678 23.2854 18.9509C22.8169 19.8879 22.2014 20.7375 21.4697 21.469L21.4685 21.47L21.4631 21.4751C21.2195 21.718 20.9631 21.9485 20.6951 22.1646C20.425 22.3823 20.1428 22.5857 19.8503 22.7734C18.344 23.7407 16.5522 24.302 14.6304 24.302H14.6289C13.2942 24.3018 12.022 24.031 10.8652 23.5417C10.678 23.4624 10.4924 23.3767 10.3093 23.2852C9.37256 22.8164 8.52271 22.2012 7.79102 21.4695L7.79004 21.4685L7.7832 21.4612C7.54077 21.2183 7.31103 20.9624 7.0957 20.6948C6.87793 20.4248 6.67456 20.1426 6.48657 19.8501C5.51929 18.344 4.95801 16.552 4.95801 14.6304V14.6289H4.9585C4.95874 13.2942 5.22974 12.022 5.71899 10.8652C5.7981 10.678 5.88379 10.4924 5.97534 10.3093C6.4436 9.37305 7.05908 8.52368 7.79077 7.79175L7.79102 7.7915L7.79077 7.79126L7.79175 7.79028L7.7981 7.78442C8.04126 7.5415 8.29761 7.31152 8.56519 7.09595C8.83545 6.87817 9.11743 6.6748 9.40991 6.48706C10.9167 5.51978 12.709 4.9585 14.6306 4.9585Z" fill="#72767C"/>
</g>
<defs>
<clipPath id="clip0_68_2211">
<rect width="30" height="29.261" fill="white"/>
</clipPath>
</defs>
</svg>
